<?xml version="1.0" encoding="UTF-8"?>
<svg id="Layer_1" xmlns="http://www.w3.org/2000/svg" version="1.1" viewBox="0 0 206.9 60.1">
  <!-- Generator: Adobe Illustrator 29.1.0, SVG Export Plug-In . SVG Version: 2.1.0 Build 142)  -->
  <g>
    <path d="M11.6,36.8c-.1,0-.1,0-.2,0h-.2q-.1,0-.2,0c-.1,0-.1,0-.2,0h-.1v-.2h0c0,0,.1-.2.1-.2h0q-.1.2-.1.3c0,0,0,.2.1.2,0,0,.1,0,.1,0h.4q.2-.1.3-.1t.1-.2c0,0,.1,0,.1-.2v-.2q0,0-.1-.2c0,0-.1,0-.1,0,0,0-.1,0-.1,0h-.2q-.1,0-.2,0l.2.3h0l-.2-.2.4-.3h-.2c0,0,.1,0,.1,0h.1s.1,0,.1,0h.1c0,.2.1.2.1.3v.2q0,0-.1.2c0,.1,0,.2-.1.2Z"/>
    <path d="M10.4,36l-.2-.4s0,0-.1,0,0,0,0,0h0c0,0,.1-.2.1-.2.1,0,.1,0,.2,0q.1,0,.2,0h0v-.2s0,0,.1,0,.1,0,.1,0h.1q0,0-.1.2s-.1,0-.1,0c0,0-.1,0-.1,0,0,0-.1,0-.1,0h0c0,0,0,.2.1.2l.2.3.4-.2h0c0,0-.8.3-.8.3ZM10.6,35.3h-.1c0,0-.1,0-.1,0h-.1s-.1,0-.1,0h0v.2h0c0,0,.2.4.2.4l.4-.2-.2-.4Z"/>
    <path d="M9.8,34.9l.6-.3h.2c.1-.2,0,0,.1-.2h0v-.2h0c0-.2-.1-.2-.1-.2h-.1c0,0-.1,0-.1,0,0,0-.1,0-.1,0l-.6.3h0c0,0,.6-.4.6-.4.1,0,.1,0,.2,0h.2q.1,0,.1,0s.1,0,.1.2,0,0,.1,0,0,0,0,0h0c0,0,0,.2-.1.2,0,0-.1,0-.1,0s-.1,0-.1,0l-.9.3h0Z"/>
    <path d="M9.3,33.8l-.2-.4h0v-.2s0,0,.1,0h.1c.1,0,.2,0,.2,0,.1,0,.1,0,.2.2v.3c.1,0,.5-.2.5-.2h0c0,0-.9.5-.9.5ZM9.7,33.6v-.3c-.1,0-.1,0-.2,0,0,0-.1,0-.1,0s-.1,0-.1,0h-.3v.2h0c0,0,.1.4.1.4h.6Z"/>
    <path d="M9,31.8h.4c.1,0,.1.1.2.1s.1.1.1.2v.2q0,0-.1.2c0,0-.1,0-.1,0-.1,0-.1,0-.2,0h-.4c-.1,0-.1,0-.2,0s-.1,0-.1-.2v-.2q0,0,.1-.2c0-.1.1-.1.1-.1q0,0,.2,0ZM9.3,32.6c.1,0,.1,0,.2,0s.1,0,.1,0q0,0,.1-.2v-.2c0-.1-.1-.1-.1-.2h-.1q-.1-.1-.2-.1h-.2c-.1,0-.1.1-.2.1s-.1.1-.1.1q0,.1-.1.2v.2c0,0,.1,0,.1.2h.1q.1,0,.2,0c0,.1,0,0,.2,0Z"/>
    <path d="M8.2,31v-.3c-.1-.1-.1-.2-.1-.2q0-.1.1-.2c0-.1.1-.1.1-.1.1,0,.1-.1.2-.1h.4c.1,0,.1.1.1.1,0,.1.1.1.1.2v.3c.1,0-.9.3-.9.3ZM9,30.4s0-.1-.1-.1h-.1c0-.1-.1-.1-.2-.2h-.2q-.1,0-.2.1h-.1c0,.1,0,.2,0,.2s0,.1,0,.1h0v.5c0,0,1-.3,1-.3v-.3Z"/>
    <path d="M7.8,29.8l-.2-.7h0v.7c0,0,.5-.2.5-.2v-.6c0,0,0,0,0,0v.6c.1,0,.5-.1.5-.1v-.6c-.1,0,0,0,0,0l.2.7-1.1.2Z"/>
    <path d="M8.4,27.7q0-.1-.1-.1s-.1,0-.1-.1h-.9c0,.1,0,0,0,0h.7q0-.1,0-.1h.4c0,.2,0,.3-.1.3h.1c0,.1,0,.2-.1.2,0,0-.1,0-.1.1h-.1c0-.1.1-.1.1-.1h.2q-.1-.1-.1-.2Z"/>
    <path d="M7.7,26.2h.2q0,0,.2.1c.1,0,.1.1.1.1,0,.1.1.1.1.2v.2c0,.1-.1.1-.1.2,0,0-.1.1-.2.1s0,.1-.2.1h-.2q0,0-.2-.1c0-.1,0-.1-.1-.2,0-.1,0-.1,0-.2v-.2c0-.1,0-.1,0-.2,0,0,0-.1.2-.1,0,0,.2,0,.2,0ZM7.8,27.1q0,0,.2-.1c.1,0,.1-.1.1-.1h.1v-.3q0-.1-.1-.2c0-.1-.1-.1-.1-.1,0,0,0-.1-.2-.1h-.2q0,0-.2.1c0,0,0,.1,0,.1h0v.3q0,.1,0,.2c0,.1,0,.1,0,.1,0,0,0,.1.2.1h.2Z"/>
    <path d="M8.2,25.5h0l-1-.3h0c0-.1,1,.3,1,.3h0l-1,.5h0c0-.1,1-.5,1-.5Z"/>
    <path d="M7.1,24.8v-.7h0v.7c0,0,.4-.1.4-.1v-.6h0v.6h.5v-.6h.1v.7h-1.2Z"/>
    <path d="M7.2,23.7h0l1-.7h-1v-.2h1v.2l-1,.7h1.1c0,.1-1.1,0-1.1,0Z"/>
    <path d="M7.7,21.8h0s0,0,0,.1h0v.2h0v.2s0,.1,0,.1h.2s0,0,0-.1c0,0,0-.1,0-.1,0,0,0-.1,0-.1,0,0,0-.1,0-.1,0,0,0-.1.1-.1h.1c0-.1.1-.1.1-.1q.1,0,.1.1h.1v.2h0v.3c0,.1-.1.1-.1.1h-.1q-.1.1-.2.1h.1c0-.1.1-.1.1-.2h.1v-.2h0v-.2s0-.1-.1-.1c0,0-.1,0-.1-.1h-.1s-.1,0-.1.1c0,0,0,.1-.1.1,0,0,0,.1,0,.1,0,0,0,.1,0,.1,0,0,0,.1,0,.1h0c0,.1,0,.1,0,.1q0,0,0-.1h0v-.2h0v-.2s0-.1,0-.1h0c0-.1,0,0,.2,0h0Z"/>
    <path d="M7.7,20.6v-.3l.2-.2c0-.1.1-.1.1-.1h.4c.1,0,.1.1.2.1s.1.1.1.1c0,.1.1.1.1.2v.5c-.1,0-1.1-.3-1.1-.3ZM8.7,20.6h0v-.2c0-.1-.1-.1-.1-.1-.1,0-.1-.1-.2-.1h-.3q0-.2,0,0s0,0,0,.1h0v.5c0,0,.8.3.8.3v-.4Z"/>
    <path d="M8,19.4l.2-.7h.1l-.3.7h.5c0,.1.2-.4.2-.4h.1l-.2.6h.4c0,.1.2-.5.2-.5h.1l-.3.7-1-.4Z"/>
    <path d="M8.7,17.8l.2-.3c.1-.1.2-.2.4-.1.1.1.2.2.1.3h0c.1-.1.2-.1.4,0q.1.1.2,0h0v.2h-.4q-.1-.1-.2,0h-.1c0,.1.4.3.4.3v.2c-.1,0-1-.6-1-.6ZM9.2,17.8h0q.1-.2,0-.3t-.2.1h0c0,.1.2.2.2.2Z"/>
    <path d="M9.5,16.4h.1c0,.1-.2.4-.2.4h.2c0,.1.2-.2.2-.2h.1c0,.1-.1.4-.1.4h.2c0,.1.2-.2.2-.2h.1c0,.1-.3.6-.3.6l-.9-.5.4-.5Z"/>
    <path d="M9.7,16l.2-.3.7.3h0l-.5-.6.2-.3.8.6v.3c0,0-.8-.5-.8-.5h0l.6.6h-.1c0,.1-.8-.1-.8-.1h0l.7.5v.2c-.1,0-1-.7-1-.7Z"/>
    <path d="M10.9,14.5h.1c0,.1-.2.4-.2.4l.2.2.2-.3h.1c0,.1-.2.4-.2.4l.2.2.3-.3h.1c0,.1-.4.6-.4.6l-.8-.7.4-.5Z"/>
    <path d="M11.9,15l-.7-.7h.1c0-.1.6.5.6.5l.3-.3h.1c0,.1-.4.5-.4.5Z"/>
    <path d="M11.9,13.6h.2c0-.1.3.2.3.2l.2-.2-.3-.3h.2c0-.1.7.7.7.7h-.3l-.3-.4-.2.2.3.4h-.2c0,.1-.6-.6-.6-.6Z"/>
    <path d="M13.2,12.5h.1c0,.1-.3.4-.3.4v.2c.1,0,.4-.2.4-.2h.1c0,.1-.3.3-.3.3l.2.2.3-.2h.1c0,.1-.5.5-.5.5l-.6-.8.5-.4Z"/>
  </g>
  <path d="M33,49.9c0,0-.1,0-.2,0-1.1,0-2.1-.8-3.1-2.4-2.6-4.1-.4-21.2.7-24.9,1.8-5.9,2.5-7.6,6.5-10.3,6.5-4.4,15.3-2.8,19.7,3.6,2.6,3.7,3.3,8.3,1.8,12.4-1.2,3.7-7.5,7.4-11.6,9.8-1.1.7-2.1,1.3-2.7,1.7-2.1,1.4-3.8,3.6-5.4,5.5-2,2.5-3.8,4.7-5.8,4.7ZM45,11.3c-2.5,0-5,.7-7.2,2.2-3.6,2.5-4.1,3.8-5.9,9.5-1.1,3.8-3,20.3-.9,23.7.7,1.1,1.3,1.6,1.9,1.7,1.3,0,3-2,4.7-4.1,1.6-2,3.5-4.2,5.7-5.8.6-.4,1.6-1,2.8-1.7,3.7-2.2,9.9-5.8,10.9-9,1.3-3.6.7-7.8-1.6-11h0c-2.4-3.6-6.4-5.5-10.4-5.5Z"/>
  <path d="M36.1,53.2c-.4,0-.7-.1-1.1-.3-1.5-1-1.4-2.7-1.2-4.8.2-2.4.5-5.8-1.2-10.1-4.7-12.1-4.9-14.6-3.3-17.5h0c1.7-2.9,5.3-5,9.8-5.9,4.3-.8,8.6-.2,11.6,1.6,3,1.8,5.1,5,5.8,8.9.7,3.8,0,7.6-2,10.3-6.5,8.6-10.1,12-15.6,16.3-1.1.9-1.9,1.5-2.8,1.5ZM30.5,21.2c-1.3,2.3-1.3,4.2,3.4,16.2,1.8,4.7,1.5,8.4,1.3,10.8-.2,2-.2,2.9.5,3.4.4.2.5.3,2.2-1.1,5.4-4.3,8.9-7.6,15.4-16.1,1.8-2.3,2.4-5.7,1.7-9.1-.7-3.5-2.5-6.4-5.1-7.9-2.6-1.6-6.6-2.1-10.5-1.4-4,.7-7.3,2.6-8.8,5.1Z"/>
  <path d="M32.8,49.8c-.4,0-.7,0-1.1,0-2.8,0-8.8-2.7-10.9-5.1-.6-.7-.9-1.4-.8-2.1.3-2,2.2-3.3,4.7-5,1.9-1.3,4.2-2.8,6.1-5,2.5-2.8,3.9-4.6,4.9-5.8,1.8-2.3,2.1-2.6,3.9-2.6,3.9,0,8.5,10.9,8.5,13.5s-1.1,5.1-4.2,8c-2,1.9-5.5,4.1-11.1,4.1ZM39.5,25.5q-1,0-2.7,2.1c-1,1.2-2.5,3.1-5,5.9-2.1,2.3-4.4,3.9-6.4,5.2-2.2,1.5-3.9,2.7-4.1,4,0,.2.1.6.5.9,1.8,2.1,7.4,4.5,9.8,4.6,4.5.2,8.3-1,11.1-3.7,2.8-2.7,3.7-5.9,3.7-7,0-2.4-4.6-12-7-12Z"/>
  <path d="M34.4,53.9c-.4,0-.9-.1-1.3-.4-5.4-2.8-15.2-11.1-18.8-14.9h0c-6.8-7.7-6.7-18.7-2-23.4,4.8-4.8,12-4.9,17.3,0,3.7,3.4,3.6,9.1,3.6,15.1,0,2.8,0,5.7.3,8.5.7,5.8,1.9,9.6,2.8,12.5.3.8,0,1.6-.6,2.2-.4.3-.8.5-1.3.5ZM15.5,37.6c3.4,3.7,13.2,11.9,18.4,14.6.3.2.7.3.9,0,.2-.2.2-.4.2-.5h0c-.9-3-2.2-7-2.9-12.9-.3-3-.3-5.9-.3-8.7,0-6,0-11.1-3.1-14-4.7-4.3-11-4.3-15.3,0-4.2,4.2-4.3,14.3,2,21.4Z"/>
  <g>
    <g>
      <path d="M82.6,42.1h-.6l-4.3-20.6h.6l4.3,20.6ZM83.5,38l-3.5-16.5h.6l2.9,13.8,2.9-13.8h.6l-3.5,16.5ZM84.9,42.1h-.5l4.3-20.6h.6l-4.4,20.6Z"/>
      <path d="M85.3,42.6h-1.5l4.5-21.6h1.6l-4.6,21.6ZM83.2,42.6h-1.6l-4.5-21.6h1.6l4.5,21.6ZM83.5,40.4l-4.1-19.4h1.6l2.5,11.9,2.5-11.9h1.6l-4.1,19.4Z"/>
    </g>
    <g>
      <path d="M94.9,42.1h-.6v-20.6h.6v20.6h0ZM97.2,42.1h-.6v-20.6h.6v20.6Z"/>
      <path d="M97.7,42.6h-1.6v-21.6h1.6v21.6ZM95.4,42.6h-1.6v-21.6h1.6v21.6Z"/>
    </g>
    <g>
      <path d="M107.1,42.1h-.6l-4.3-20.6h.6l4.3,20.6ZM108,38l-3.4-16.5h.6l2.9,13.8,2.9-13.8h.6l-3.6,16.5ZM109.4,42.1h-.5l4.3-20.6h.6l-4.4,20.6Z"/>
      <path d="M109.8,42.6h-1.5l4.5-21.6h1.6l-4.6,21.6ZM107.7,42.6h-1.6l-4.5-21.6h1.6l4.5,21.6ZM108,40.4l-4-19.4h1.6l2.5,11.9,2.5-11.9h1.6l-4.2,19.4Z"/>
    </g>
    <g>
      <path d="M119.4,42.1h-.6v-20.6h.6v20.6ZM121.7,42.1h-.6v-20.6h.6v20.6Z"/>
      <path d="M122.2,42.6h-1.6v-21.6h1.6v21.6ZM119.9,42.6h-1.6v-21.6h1.6v21.6Z"/>
    </g>
    <g>
      <path d="M128,42.1h-.6v-15.2c0-.8.2-1.6.5-2.3.3-.7.7-1.3,1.2-1.8s1.2-.9,1.9-1.2c.7-.3,1.5-.4,2.3-.4s1.6.2,2.3.4c.7.3,1.3.7,1.9,1.2.5.5.9,1.1,1.2,1.8.3.7.5,1.5.5,2.3v.6h-.6v-.6c0-.8-.2-1.5-.5-2.1s-.7-1.2-1.2-1.6c-.5-.5-1-.8-1.7-1-.6-.3-1.3-.4-2-.4s-1.3.1-2,.4c-.6.3-1.2.6-1.7,1-.5.5-.9,1-1.2,1.6s-.5,1.4-.5,2.1c.2,0,.2,15.2.2,15.2ZM130.4,30.4h5v.6h-5.6v-4.1c0-.5.1-1,.3-1.4s.5-.8.8-1.1c.3-.3.7-.5,1.1-.7.4-.2.9-.2,1.3-.2s.9.1,1.3.2c.4.2.8.4,1.1.7.3.3.6.7.8,1.1s.3.9.3,1.4v.6h-.6v-.6c0-.9-.3-1.6-.8-2.1s-1.2-.7-2.1-.7-1.6.3-2.2.7c-.5.5-.8,1.2-.8,2.1,0,0,0,3.5,0,3.5ZM130.4,42.1h-.6v-9.4h5.6v.6h-5v8.8Z"/>
      <path d="M130.9,42.6h-1.6v-10.4h6.6v1.6h-5v8.8ZM128.5,42.6h-1.6v-15.7c0-.8.2-1.7.5-2.5.3-.8.8-1.4,1.3-2,.5-.5,1.2-.9,2.1-1.3.7-.3,1.5-.4,2.5-.4s1.7.2,2.4.4c.8.3,1.4.7,2.1,1.3.6.6,1,1.2,1.3,2,.4.8.5,1.7.5,2.5v1.1h-1.6v-1.1c0-.7-.2-1.3-.4-1.9-.3-.6-.7-1.1-1.1-1.4-.5-.5-.9-.7-1.5-.9-.6-.3-1.1-.4-1.9-.4s-1.2.1-1.8.4c-.6.3-1.1.6-1.6.9-.5.5-.8.9-1.1,1.4-.3.6-.4,1.3-.4,1.9h0c.2,1.1.2,4.5.2,15.2v.5ZM135.9,31.5h-6.6v-4.6c0-.6.1-1.2.4-1.6.2-.4.5-.9.9-1.2.4-.4.8-.6,1.2-.8.5-.3,1.1-.3,1.5-.3s1,.1,1.4.2h.1c.4.3.9.5,1.2.8.4.4.7.8.9,1.2.2.5.4,1,.4,1.6v1.1h-1.6v-1.1c0-.7-.2-1.3-.7-1.7s-.9-.6-1.7-.6-1.3.2-1.9.6c-.3.4-.6.9-.6,1.6,0,.4,0,1.3,0,3.1h5v1.6Z"/>
    </g>
    <g>
      <path d="M144.8,42.1h-.6v-20.6h.6v20.6ZM147.2,42.1h-.6v-20.6h.6v20.6Z"/>
      <path d="M147.7,42.6h-1.6v-21.6h1.6v21.6ZM145.3,42.6h-1.6v-21.6h1.6v21.6Z"/>
    </g>
    <g>
      <path d="M164,36.2h.6v.5c0,.8-.2,1.6-.5,2.3s-.7,1.3-1.2,1.8-1.1.9-1.9,1.2c-.7.3-1.5.4-2.3.4s-1.6-.2-2.3-.4c-.7-.3-1.4-.7-1.9-1.2s-.9-1.1-1.2-1.8-.5-1.5-.5-2.3v-9.8c0-.8.2-1.6.5-2.3.3-.7.7-1.3,1.2-1.8s1.2-.9,1.9-1.2c.7-.3,1.5-.4,2.3-.4s1.6.2,2.3.4c.7.3,1.3.7,1.9,1.2.5.5.9,1.1,1.2,1.8.3.7.5,1.5.5,2.3v.6h-.6v-.6c0-.8-.2-1.5-.5-2.1s-.7-1.2-1.2-1.6c-.5-.5-1-.8-1.7-1-.6-.3-1.3-.4-2-.4s-1.3.1-2,.4c-.6.3-1.2.6-1.7,1-.5.5-.9,1-1.2,1.6s-.5,1.4-.5,2.1v9.8c0,.8.2,1.5.5,2.1s.7,1.2,1.2,1.6c.5.5,1,.8,1.7,1,.6.2,1.3.4,2,.4s1.3,0,2-.4c.6-.2,1.2-.6,1.7-1s.9-1,1.2-1.6.5-1.4.5-2.1v-.5ZM161.6,36.2h.6v.5c0,.5-.1,1-.3,1.4s-.5.8-.8,1.1-.7.5-1.1.7c-.4.2-.9.2-1.3.2s-.9,0-1.3-.2c-.4-.2-.8-.4-1.1-.7s-.6-.7-.8-1.1c-.2-.4-.3-.9-.3-1.4v-9.8c0-.5.1-1,.3-1.4s.5-.8.8-1.1c.3-.3.7-.5,1.1-.7.4-.2.9-.2,1.3-.2s.9.1,1.3.2c.4.2.8.4,1.1.7.3.3.6.7.8,1.1s.3.9.3,1.4v.6h-.6v-.6c0-.9-.3-1.6-.8-2.1s-1.2-.7-2.1-.7-1.6.3-2.2.7c-.5.5-.8,1.2-.8,2.1v9.8c0,.9.3,1.6.8,2.1s1.2.7,2.2.7,1.6-.3,2.1-.7c.5-.5.8-1.2.8-2.1v-.5Z"/>
      <path d="M158.7,42.9c-.9,0-1.7-.2-2.4-.4-.9-.4-1.6-.8-2.1-1.3s-1-1.2-1.3-2c-.4-.8-.5-1.7-.5-2.5v-9.8c0-.8.2-1.7.5-2.5.3-.8.8-1.4,1.3-2,.5-.5,1.2-.9,2.1-1.3.7-.3,1.5-.4,2.5-.4s1.7.2,2.4.4c.8.3,1.4.7,2.1,1.3.6.6,1,1.2,1.3,2,.4.8.5,1.7.5,2.5v1.1h-1.6v-1.1c0-.7-.2-1.3-.4-1.9-.3-.6-.7-1.1-1.1-1.4-.5-.5-.9-.7-1.5-.9-.6-.3-1.1-.4-1.9-.4s-1.2.1-1.8.4c-.6.3-1.1.6-1.6.9-.5.5-.8.9-1.1,1.4-.3.6-.4,1.3-.4,1.9v9.8c0,.7.2,1.3.4,1.9.3.6.7,1.1,1.1,1.4.5.5.9.7,1.5.9.6.2,1.2.4,1.9.4s1.2-.1,1.8-.4c.5-.2,1-.5,1.6-.9.4-.3.7-.8,1.1-1.4.3-.6.4-1.3.4-1.9v-1h1.6v1c0,.8-.2,1.7-.5,2.5-.3.8-.8,1.4-1.3,2-.6.6-1.3,1-2.1,1.3-.7.3-1.5.4-2.5.4ZM158.7,40.6c-.4,0-.9,0-1.4-.2h-.1c-.4-.2-.9-.5-1.2-.8-.4-.4-.7-.8-.9-1.2-.2-.5-.4-1-.4-1.6v-9.8c0-.6.1-1.2.4-1.6.2-.4.5-.9.9-1.2.4-.4.8-.6,1.2-.8s1.1-.3,1.5-.3.9,0,1.4.2h.1c.4.3.9.5,1.2.8.4.4.7.8.9,1.2.2.5.4,1,.4,1.6v1.1h-1.6v-1.1c0-.7-.2-1.3-.7-1.7s-.9-.6-1.7-.6-1.3.2-1.9.6c-.4.4-.6,1-.6,1.7v9.8c0,.7.2,1.3.7,1.7s1,.6,1.8.6,1.4-.3,1.8-.6c.4-.4.6-1,.6-1.7v-1h1.6v1c0,.6-.1,1.2-.4,1.6-.2.4-.5.9-.9,1.2s-.8.6-1.2.8c-.5.3-1.1.3-1.5.3Z"/>
    </g>
    <g>
      <path d="M181.8,42.1h-.6v-15.2c0-.7-.2-1.3-.4-2-.3-.6-.7-1.2-1.2-1.7s-1-.9-1.7-1.2c-.6-.3-1.3-.4-2-.4s-1.3.2-1.9.4c-.6.3-1.2.7-1.7,1.1-.5.5-.9,1-1.2,1.7-.3.6-.5,1.3-.5,2v15.2h-.6v-15.1c0-.8.2-1.6.5-2.3.3-.7.7-1.3,1.2-1.8s1.1-.9,1.9-1.2c.7-.3,1.5-.4,2.3-.4s1.6.2,2.3.5,1.4.7,1.9,1.2,1,1.1,1.3,1.9c.3.7.5,1.5.5,2.2v15.1h-.1ZM179.4,31v-3.8c0-.5-.1-1-.3-1.4s-.4-.8-.8-1.1c-.3-.3-.7-.6-1.1-.8-.4-.2-.9-.3-1.4-.3s-.9.1-1.3.3c-.4.2-.8.4-1.1.7s-.6.7-.8,1.1-.3.9-.3,1.3v4c.1,0,7.1,0,7.1,0ZM178.9,30.5h-6v-3.3c0-.4.1-.8.2-1.2.2-.4.4-.7.6-1s.6-.5.9-.6c.4-.2.8-.2,1.2-.2s.8.1,1.2.2c.4.2.7.4,1,.6.3.3.5.6.6,1,.2.4.2.8.2,1.2v3.3h.1ZM179.4,42.1h-.6v-8.8h-5.8v8.8h-.6v-9.4h7v9.4h0Z"/>
      <path d="M182.3,42.6h-1.6v-15.7c0-.6-.1-1-.3-1.6v-.2c-.3-.5-.7-1.1-1.1-1.5-.5-.5-1-.9-1.5-1.1-.5-.2-1.1-.4-1.8-.4s-1.2.2-1.7.4c-.5.2-1,.6-1.5,1-.5.5-.8.9-1.1,1.5-.2.4-.5,1.1-.5,1.8v15.7h-1.6v-15.6c0-.8.2-1.7.5-2.5.3-.8.8-1.4,1.3-2,.6-.6,1.3-1,2.1-1.3.7-.3,1.5-.4,2.5-.4s1.7.2,2.5.5c.9.4,1.6.8,2.1,1.3.5.5,1.1,1.1,1.4,2.1.3.8.5,1.6.5,2.4v15.6ZM179.9,42.6h-1.6v-8.8h-4.8v8.8h-1.6v-10.4h8v10.4ZM179.9,31.5h-8.1v-4.5c0-.5.1-1.1.4-1.5.2-.4.5-.9.9-1.2.4-.4.8-.6,1.2-.8s1-.4,1.5-.4,1.2.1,1.6.4c.4.2.9.5,1.2.9.4.3.7.8.9,1.2.2.5.4,1,.4,1.6v4.3ZM173.4,30h5v-2.8c0-.4,0-.7-.2-1h0c0-.4-.2-.6-.5-.9-.2-.1-.5-.3-.8-.5-.8-.2-1.4-.3-2,0-.4.1-.6.3-.7.4-.2.3-.4.5-.5.9,0,.4-.2.7-.2,1v2.8Z"/>
    </g>
  </g>
</svg>